<svg viewBox="0 0 82.8 82.8" xmlns="http://www.w3.org/2000/svg"><style>.st0{fill:#009289}.st1{fill:#616161}</style><path class="st0" d="M54 2c2.9.9 5.7 2.2 8.3 3.7-1.1 8.3-4.4 16.6-5.4 19.1-5 3.4-8.5 7.1-11.1 10.6C46.9 23.6 49.3 11.8 54 2zM74.5 16.5c-3.1.9-5.9 2-8.5 3.2.9-2.8 1.8-6.1 2.5-9.6 2.2 1.9 4.2 4 6 6.4z"/><path class="st1" d="M80.4 55.4c-5.1 14.3-17.8 24.9-33.3 27-.8-6.3-1.8-16.3-2-27.7.1-1.3.7-6.5 4.3-12.4 4.3.1 18.8 1.1 30.9 13l.1.1zM82.8 41.4c0 2.2-.2 4.4-.5 6.5-10.2-8.7-21.2-11.4-28-12.2 4.9-5.1 12.4-10.1 23.9-13.3 2.9 5.7 4.6 12.2 4.6 19z"/><path class="st0" d="M23.5 12.6c-2.5-1.2-5.2-2.3-8.3-3.2 2.5-2.1 5.3-3.9 8.3-5.3-.5 3.2-.4 6.1 0 8.5z"/><path d="M38.3 48.8c-1.4-1.6-5.5-5.4-13.5-8.9h-.1c-.2 0-12.1.3-23.8 10.1 3.9 18.4 20 32.2 39.4 32.7-1-7.6-2.3-20-2-33.9zm-28.7-34c-3 3.6-5.5 7.8-7.1 12.4 19 2.5 30.1 8.4 36.1 12.8 0-.7.1-1.4.1-2.1-.8-2.9-6-17.4-29.1-23.1zM41.4 0c-3.6 0-7 .4-10.3 1.3-3.1 10.3 1 16.1 1.1 16.2.2.2.3.5.4.8 3.2 2.5 5.6 5.2 7.5 7.7 1.4-8.9 3.6-17.7 7.2-25.5-2-.4-3.9-.5-5.9-.5z" fill="#009be0"/><path class="st0" d="M12.1 35.8C8.4 37.1 4.3 39.1 0 42.2v-.8c0-2.6.2-5.1.7-7.6 4.2.5 8 1.2 11.4 2z"/></svg>