<svg id="Слой_1" xmlns="http://www.w3.org/2000/svg" viewBox="0 0 70.7 103.2"><style>.st0{fill:#b33444}.st1{fill:#fff}</style><path id="XMLID_5_" class="st0" d="M70.7 85.4l-14.9-2.3-6 13.8-27.4-49.7 20.8-11.5z"/><path id="XMLID_4_" class="st0" d="M25.9 103.2L17.1 91l-14 5.6L18.8 42l22.9 6.6z"/><g id="XMLID_3_"><path class="st0" d="M67.1 33.8c0 4.3-3.7 7.9-5.2 11.6-1.6 3.9-1.6 9-4.5 11.9-2.9 2.9-8 2.9-11.9 4.5-3.8 1.6-7.3 5.2-11.6 5.2s-7.9-3.7-11.6-5.2c-3.9-1.6-9-1.6-11.9-4.5-2.9-2.9-2.9-8-4.5-11.9C4.3 41.6.7 38.1.7 33.8s3.7-7.9 5.2-11.6c1.6-3.9 1.6-9 4.5-11.9 2.9-2.9 8-2.9 11.9-4.5C26.1 4.2 29.6.6 33.9.6s7.9 3.7 11.6 5.2c3.9 1.6 9 1.6 11.9 4.5 2.9 2.9 2.9 8 4.5 11.9 1.6 3.7 5.2 7.3 5.2 11.6z"/><path class="st1" d="M33.8 67.6c-2.9 0-5.5-1.6-8-3.1-1.3-.8-2.6-1.6-3.8-2.1-1.4-.6-2.9-.9-4.4-1.3-2.8-.7-5.7-1.4-7.7-3.3-2-2-2.7-4.9-3.3-7.7-.4-1.5-.7-3-1.3-4.4-.5-1.3-1.3-2.5-2.1-3.8-1.5-2.5-3.1-5-3.1-8 0-2.9 1.6-5.5 3.1-8 .8-1.4 1.5-2.6 2.1-3.9.6-1.4.9-2.9 1.3-4.4.7-2.8 1.4-5.7 3.3-7.7 2-2 4.9-2.7 7.7-3.3 1.5-.4 3-.7 4.4-1.3 1.3-.5 2.5-1.3 3.8-2.1 2.5-1.5 5-3.1 8-3.1 2.9 0 5.5 1.6 8 3.1 1.3.8 2.6 1.6 3.8 2.1 1.4.5 2.9.9 4.4 1.3 2.8.7 5.7 1.4 7.7 3.3 2 2 2.7 4.9 3.3 7.7.4 1.5.7 3 1.3 4.4.5 1.3 1.3 2.5 2.1 3.8 1.5 2.5 3.1 5 3.1 8 0 2.9-1.6 5.5-3.1 8-.8 1.3-1.6 2.6-2.1 3.8-.6 1.4-.9 2.9-1.3 4.4-.7 2.8-1.4 5.7-3.3 7.7-2 2-4.9 2.7-7.7 3.3-1.5.4-3 .7-4.4 1.3-1.3.5-2.5 1.3-3.8 2.1-2.5 1.6-5 3.2-8 3.2zm0-66.6c-2.7 0-5.1 1.5-7.4 3-1.3.8-2.6 1.6-4 2.2-1.4.6-3 1-4.6 1.3-2.8.7-5.4 1.3-7.2 3.1-1.8 1.8-2.4 4.4-3.1 7.2-.4 1.5-.7 3.1-1.3 4.6-.6 1.4-1.4 2.7-2.2 4-1.5 2.4-3 4.8-3 7.4 0 2.7 1.5 5.1 3 7.4.8 1.3 1.6 2.6 2.2 4 .6 1.4 1 3 1.3 4.6.7 2.8 1.3 5.4 3.1 7.2 1.8 1.8 4.4 2.4 7.2 3.1 1.5.4 3.1.7 4.6 1.3 1.4.6 2.7 1.4 4 2.2 2.4 1.5 4.8 3 7.4 3 2.7 0 5.1-1.5 7.4-3 1.3-.8 2.6-1.6 4-2.2 1.4-.6 3-1 4.6-1.3 2.8-.7 5.4-1.3 7.2-3.1 1.8-1.8 2.4-4.4 3.1-7.2.4-1.5.7-3.1 1.3-4.5.6-1.4 1.4-2.7 2.2-4 1.5-2.4 3-4.8 3-7.4 0-2.7-1.5-5.1-3-7.4-.8-1.3-1.6-2.6-2.2-4-.6-1.4-1-3-1.3-4.5-.7-2.8-1.3-5.4-3.1-7.2s-4.4-2.4-7.2-3.1c-1.5-.4-3.1-.7-4.6-1.3-1.4-.6-2.7-1.4-4-2.2C38.9 2.5 36.5 1 33.8 1z"/></g><circle class="st1" cx="33.8" cy="33.8" r="25.9" id="XMLID_2_"/><circle cx="33.8" cy="33.8" r="24.8" fill="#dfe5e4" id="XMLID_1_"/></svg>